<svg xmlns="http://www.w3.org/2000/svg" xml:space="preserve" width="2000" height="126" data-id="lg_kCtZrYO3Wx29dIDti7" data-version="1" viewBox="0 0 2000 126"><g data-padding="20"><g transform="translate(10 2.25)scale(.96429)"><rect width="443.897" height="123.871" x="404.469" y="-397.288" fill="none" rx="0" ry="0" transform="translate(458.55 399.62)"/><path d="M885.448 53.317h-20.22V3.477h9.97v41.34h10.25Zm14.56.45q-4.53 0-7.23-1.7-2.69-1.7-3.85-4.9t-1.16-7.7v-17.08q0-5.91 3.4-8.96 3.4-3.04 9.35-3.04 12.23 0 12.23 12v3.09q0 5.61-.11 7.53h-14.73v8.22q0 1.13.14 2.22t.64 1.8 1.6.71q1.59 0 1.98-1.38.4-1.37.4-3.58v-4.08h10.08v2.41q0 4.76-1.17 7.97-1.18 3.22-3.97 4.84-2.79 1.63-7.6 1.63m-2.16-31.52v5.72h4.82v-5.72q0-2.29-.57-3.3-.56-1-1.7-1-1.21 0-1.88.96t-.67 3.34m26.32 31.52q-3.54 0-5.39-1.64-1.86-1.64-2.54-4.5t-.68-6.49q0-3.88.77-6.36.76-2.47 2.62-4.06 1.85-1.59 5.11-2.69l6.29-2.15v-4.36q0-3.43-2.24-3.43-2.04 0-2.04 2.78v2.54h-9.85q-.03-.22-.03-.58v-.8q0-6.35 2.99-9 2.98-2.64 9.47-2.64 3.4 0 6.09 1.2t4.26 3.55 1.57 5.81v32.37h-10.08v-5.04q-.74 2.66-2.44 4.08-1.7 1.41-3.88 1.41m4-7.87q1.24 0 1.7-1.05.45-1.05.45-2.26v-11.84q-2.1.85-3.26 2.14t-1.16 3.78v5.46q0 3.77 2.27 3.77m26.61 7.42h-10.31v-42.48h10.31v4.73q.73-2.46 2.6-3.85t4.7-1.39v8.47q-1.24 0-2.97.27t-3.03.73q-1.3.47-1.3 1.04Zm19.95 0h-10.14v-42.48h10.14v5.41q.56-2.44 2.11-4.15 1.54-1.71 4.29-1.71 4.41 0 6.41 2.72 2 2.71 2 7.44v32.77h-10v-31.72q0-1.24-.51-2.31-.51-1.06-1.76-1.06-1.16 0-1.71.81t-.69 2.01-.14 2.39Zm28.85-45.08h-10.13v-8.44h10.13Zm0 45.09h-10.13v-42.48h10.13Zm14.16-.01h-10.13v-42.48h10.13v5.41q.57-2.44 2.11-4.15 1.55-1.71 4.29-1.71 4.42 0 6.42 2.72 2 2.71 2 7.44v32.77h-10v-31.72q0-1.24-.51-2.31-.51-1.06-1.76-1.06-1.16 0-1.71.81t-.69 2.01q-.15 1.2-.15 2.39Zm30.21 7.37q-2.94 0-5.05-.29-2.11-.3-3.78-1.07-1.68-.76-3.35-2.15l3.43-5.86q3.71 2.21 7.42 2.21 2.44 0 3.63-1.56t1.19-4.05v-4.16q-1.22 4.36-6.49 4.36-3.03 0-4.9-1.45-1.87-1.44-2.72-3.9-.85-2.47-.85-5.5v-15.26q0-3.43.74-6.05.73-2.62 2.58-4.09 1.84-1.47 5.15-1.47 2.8 0 4.38 1.41 1.57 1.42 2.11 3.83v-4.79h10.33v36.42q0 7.22-3.33 10.32-3.32 3.1-10.49 3.1m1.11-20.22q2.38 0 2.38-4.3v-14.45q0-1.16-.67-2.37-.67-1.22-1.83-1.22-1.47 0-1.84 1.09t-.37 2.5v14.45q0 1.53.39 2.92.38 1.38 1.94 1.38m-173.75 71.18h-10.08v-49.84h15.29q3.83 0 5.78 1.74t2.62 4.87q.66 3.13.66 7.35 0 4.08-1.03 6.51-1.03 2.44-3.89 3.37 2.35.48 3.3 2.34.94 1.85.94 4.8v18.86h-9.82v-19.51q0-2.18-.89-2.71-.9-.52-2.88-.52Zm.06-40.61v9.23h2.4q2.07 0 2.07-4.5 0-2.92-.45-3.82-.45-.91-1.7-.91Zm29.22 41.06q-4.53 0-7.22-1.7-2.69-1.69-3.85-4.89t-1.16-7.71v-17.08q0-5.91 3.4-8.96 3.4-3.04 9.34-3.04 12.24 0 12.24 12v3.09q0 5.61-.11 7.54h-14.73v8.21q0 1.13.14 2.22t.64 1.8q.49.71 1.6.71 1.58 0 1.98-1.38.4-1.37.4-3.58v-4.08h10.08v2.41q0 4.76-1.18 7.97-1.17 3.22-3.96 4.85-2.79 1.62-7.61 1.62m-2.15-31.52v5.72h4.82v-5.72q0-2.29-.57-3.3-.57-1-1.7-1-1.22 0-1.88.96-.67.96-.67 3.34m30.22 31.52q-12.57 0-12.57-12.74v-3.37h10.19v4.98q0 1.45.57 2.27.56.82 1.81.82 2.21 0 2.21-3.31 0-2.78-1.16-4.15-1.16-1.38-2.83-2.65l-5.41-4.16q-2.55-1.98-3.88-4.19t-1.33-6.15q0-3.65 1.74-6.03t4.61-3.54q2.88-1.16 6.22-1.16 12.35 0 12.35 12.32v.79h-10.48v-1.61q0-1.28-.44-2.47t-1.71-1.19q-2.16 0-2.16 2.27 0 2.29 1.82 3.59l6.28 4.59q2.95 2.13 4.95 5.04 1.99 2.92 1.99 7.76 0 6.01-3.41 9.15t-9.36 3.14m28.24 0q-12.69 0-12.69-13.17v-17.04q0-6.01 3.37-9.59t9.32-3.58q5.97 0 9.34 3.58t3.37 9.59v17.04q0 13.17-12.71 13.17m0-7.81q1.27 0 1.82-.92t.55-2.34v-20.76q0-3.71-2.37-3.71-2.38 0-2.38 3.71v20.76q0 1.42.55 2.34t1.83.92m24.63 7.81q-3.39 0-5.19-1.41-1.8-1.42-2.45-3.95-.65-2.54-.65-5.94v-31.63h10.19v30.44q0 2.55.4 3.56.39 1 1.87 1 1.58 0 1.99-1.41.41-1.42.41-3.66v-29.93h10.11v42.48h-10.13v-4.53q-.97 2.44-2.31 3.71-1.35 1.27-4.24 1.27m31.07-.44h-10.31v-42.48h10.31v4.73q.74-2.46 2.61-3.85t4.7-1.39v8.47q-1.25 0-2.98.27-1.72.27-3.03.73-1.3.47-1.3 1.04Zm22.58.44q-7.13 0-10.12-3.65t-2.99-10.73v-13.09q0-5.32 1.13-8.86 1.14-3.54 3.97-5.3 2.83-1.75 7.87-1.75 3.51 0 6.3 1.24 2.79 1.25 4.41 3.66 1.61 2.4 1.61 5.89v6.48h-10.34v-5.94q0-1.48-.42-2.48-.43-1.01-1.84-1.01-2.49 0-2.49 3.54v20.59q0 1.3.56 2.39.57 1.09 1.87 1.09 1.33 0 1.86-1.06.52-1.06.52-2.48v-7.13h10.28v7.42q0 3.51-1.57 6.02-1.57 2.5-4.32 3.83t-6.29 1.33m27.6 0q-4.53 0-7.22-1.7-2.69-1.69-3.85-4.89t-1.16-7.71v-17.08q0-5.91 3.4-8.96 3.4-3.04 9.34-3.04 12.24 0 12.24 12v3.09q0 5.61-.11 7.54h-14.73v8.21q0 1.13.14 2.22t.64 1.8q.49.71 1.6.71 1.58 0 1.98-1.38.4-1.37.4-3.58v-4.08h10.08v2.41q0 4.76-1.18 7.97-1.17 3.22-3.96 4.85-2.79 1.62-7.61 1.62m-2.15-31.52v5.72h4.82v-5.72q0-2.29-.57-3.3-.57-1-1.7-1-1.22 0-1.88.96-.67.96-.67 3.34m41.35 31.07h-9.01v-49.84h15.18l4.2 30.38 4.16-30.38h15.32v49.84h-9.12v-35.91l-5.72 35.91h-8.95l-6.06-35.91Zm41.84.45q-3.54 0-5.4-1.64-1.85-1.64-2.53-4.5t-.68-6.49q0-3.88.76-6.35.77-2.48 2.62-4.07 1.86-1.58 5.12-2.69l6.28-2.15v-4.36q0-3.43-2.23-3.43-2.04 0-2.04 2.78v2.54h-9.86q-.03-.22-.03-.58v-.8q0-6.35 2.99-8.99 2.99-2.65 9.47-2.65 3.4 0 6.09 1.2t4.26 3.55q1.58 2.36 1.58 5.81v32.37h-10.09v-5.04q-.73 2.66-2.43 4.08-1.7 1.41-3.88 1.41m3.99-7.87q1.25 0 1.7-1.05.45-1.04.45-2.26v-11.84q-2.09.85-3.25 2.14t-1.16 3.78v5.46q0 3.77 2.26 3.77m26.45 7.43h-10.14v-42.48h10.14v5.41q.57-2.44 2.11-4.15 1.55-1.71 4.29-1.71 4.42 0 6.42 2.72 1.99 2.71 1.99 7.44v32.77h-9.99v-31.72q0-1.24-.51-2.31-.51-1.06-1.76-1.06-1.16 0-1.71.81t-.69 2.01q-.15 1.2-.15 2.39Zm26.5.44q-3.54 0-5.39-1.64-1.86-1.64-2.54-4.5t-.68-6.49q0-3.88.77-6.35.76-2.48 2.62-4.07 1.85-1.58 5.11-2.69l6.29-2.15v-4.36q0-3.43-2.24-3.43-2.04 0-2.04 2.78v2.54h-9.86q-.03-.22-.03-.58v-.8q0-6.35 2.99-8.99 2.99-2.65 9.48-2.65 3.39 0 6.08 1.2 2.7 1.2 4.27 3.55 1.57 2.36 1.57 5.81v32.37h-10.08v-5.04q-.74 2.66-2.44 4.08-1.7 1.41-3.88 1.41m3.99-7.87q1.25 0 1.7-1.05.46-1.04.46-2.26v-11.84q-2.1.85-3.26 2.14t-1.16 3.78v5.46q0 3.77 2.26 3.77m27.76 14.78q-2.95 0-5.06-.29-2.11-.3-3.78-1.07-1.67-.76-3.34-2.15l3.43-5.86q3.71 2.21 7.42 2.21 2.43 0 3.62-1.56t1.19-4.05v-4.16q-1.22 4.36-6.48 4.36-3.03 0-4.9-1.44-1.87-1.45-2.72-3.91-.85-2.47-.85-5.5v-15.26q0-3.43.73-6.05.74-2.62 2.58-4.09t5.16-1.47q2.8 0 4.37 1.41 1.57 1.42 2.11 3.83v-4.79h10.34v36.42q0 7.22-3.33 10.32t-10.49 3.1m1.1-20.22q2.38 0 2.38-4.3v-14.44q0-1.17-.66-2.38-.67-1.22-1.83-1.22-1.47 0-1.84 1.09t-.37 2.51v14.44q0 1.53.38 2.92.39 1.38 1.94 1.38m28.58 13.31q-4.53 0-7.22-1.7-2.69-1.69-3.86-4.89-1.16-3.2-1.16-7.71v-17.08q0-5.91 3.4-8.96 3.4-3.04 9.35-3.04 12.23 0 12.23 12v3.09q0 5.61-.11 7.54h-14.73v8.21q0 1.13.14 2.22.15 1.09.64 1.8.5.71 1.6.71 1.59 0 1.98-1.38.4-1.37.4-3.58v-4.08h10.08v2.41q0 4.76-1.17 7.97-1.18 3.22-3.97 4.85-2.79 1.62-7.6 1.62m-2.15-31.52v5.72h4.81v-5.72q0-2.29-.57-3.3-.56-1-1.7-1-1.21 0-1.88.96-.66.96-.66 3.34m28.88 31.08h-10.31v-42.48h10.31v4.73q.74-2.46 2.61-3.85t4.7-1.39v8.47q-1.25 0-2.97.27-1.73.27-3.03.73-1.31.47-1.31 1.04Z"/><path fill="#89939e" d="M793.202 57.693a19.94 19.94 0 0 1-14.186-5.876 19.93 19.93 0 0 1-5.876-14.188c0-5.36 2.086-10.396 5.876-14.186a19.93 19.93 0 0 1 14.186-5.876c5.36 0 10.396 2.088 14.186 5.876 7.822 7.822 7.822 20.55 0 28.374a19.94 19.94 0 0 1-14.186 5.876m0-36.126a15.96 15.96 0 0 0-11.36 4.704 15.97 15.97 0 0 0-4.702 11.36c0 4.292 1.67 8.324 4.704 11.356a15.96 15.96 0 0 0 11.358 4.706 15.96 15.96 0 0 0 11.358-4.706c6.262-6.262 6.262-16.452 0-22.716a15.96 15.96 0 0 0-11.362-4.704"/><path fill="#89939e" d="M793.202 48.451a10.76 10.76 0 0 1-7.652-3.168 10.76 10.76 0 0 1-3.17-7.654c0-2.892 1.126-5.608 3.17-7.652a10.75 10.75 0 0 1 7.652-3.168c2.892 0 5.608 1.124 7.652 3.168 4.22 4.23 4.22 11.077 0 15.306a10.76 10.76 0 0 1-7.652 3.168m0-17.642a6.8 6.8 0 0 0-4.824 1.998c-1.288 1.288-2 3-2 4.822s.712 3.536 2 4.824 3 2 4.824 2a6.8 6.8 0 0 0 4.824-2 6.83 6.83 0 0 0 0-9.646 6.8 6.8 0 0 0-4.824-2m-33.18 44.118a7.366 7.366 0 0 1-7.358-7.358c0-4.056 3.3-7.358 7.358-7.358s7.356 3.3 7.356 7.358a7.366 7.366 0 0 1-7.356 7.358m0-10.716a3.36 3.36 0 0 0-3.358 3.358 3.36 3.36 0 0 0 3.358 3.358 3.36 3.36 0 0 0 0-6.716m6.252 49.358h-12.5a2 2 0 0 1-2-2V94.353a2 2 0 0 1 2-2h12.5a2 2 0 0 1 2 2v17.214a2 2 0 0 1-2 2m-10.5-4h8.5V96.353h-8.5Z"/><path fill="#89939e" d="M771.63 96.353h-23.212a2 2 0 0 1-2-2v-9.472c0-4.74 3.86-8.6 8.6-8.6h10.014c4.742 0 8.6 3.86 8.6 8.6v9.472a2 2 0 0 1-2 2m-21.214-4h19.214v-7.472c0-2.536-2.062-4.6-4.6-4.6h-10.014a4.606 4.606 0 0 0-4.6 4.6Zm19.606 21.214h-20a2 2 0 1 1 0-4h20a2 2 0 1 1 0 4m19.214-38.642a7.366 7.366 0 0 1-7.358-7.358 7.366 7.366 0 0 1 7.358-7.358 7.366 7.366 0 0 1 7.358 7.358 7.366 7.366 0 0 1-7.358 7.358m0-10.716a3.36 3.36 0 0 0-3.358 3.358 3.36 3.36 0 0 0 3.358 3.358 3.36 3.36 0 0 0 3.358-3.358 3.36 3.36 0 0 0-3.358-3.358m6.25 49.358h-12.5a2 2 0 0 1-2-2V94.353a2 2 0 0 1 2-2h12.5a2 2 0 0 1 2 2v17.214a2 2 0 0 1-2 2m-10.5-4h8.5V96.353h-8.5Z"/><path fill="#89939e" d="M800.846 96.353H777.63a2 2 0 0 1-2-2v-9.472c0-4.74 3.86-8.6 8.6-8.6h10.016c4.74 0 8.6 3.86 8.6 8.6v9.472a2 2 0 0 1-2 2m-21.216-4h19.216v-7.472c0-2.536-2.064-4.6-4.6-4.6H784.23a4.606 4.606 0 0 0-4.6 4.6Zm19.608 21.214h-20a2 2 0 1 1 0-4h20a2 2 0 1 1 0 4m14.232-45.968a2 2 0 0 1-1.414-.586l-11.944-11.944a2 2 0 0 1 .492-3.188l.124-.064.158-.08a16.1 16.1 0 0 0 6.572-6.7 2 2 0 0 1 3.188-.492l13.232 13.232a7.4 7.4 0 0 1 1.32 8.744 2 2 0 0 1-3.626-.194 3.34 3.34 0 0 0-3.12-2.116 3.34 3.34 0 0 0-3.122 2.124 2 2 0 0 1-1.86 1.264m-8.728-13.558 8.412 8.414a7.32 7.32 0 0 1 5.3-2.244c.948 0 1.86.178 2.706.508l-.11-.112-11.434-11.436a20.2 20.2 0 0 1-4.874 4.87m23.71 59.526h-20a2 2 0 1 1 0-4h20a2 2 0 1 1 0 4"/><path fill="#89939e" d="M818.452 74.925a7.366 7.366 0 0 1-7.354-7.358 7.366 7.366 0 0 1 7.356-7.358 7.366 7.366 0 0 1 7.356 7.358 7.366 7.366 0 0 1-7.358 7.358m0-10.716a3.36 3.36 0 0 0-3.356 3.358c0 1.852 1.506 3.358 3.356 3.358s3.358-1.506 3.358-3.358a3.36 3.36 0 0 0-3.358-3.358m6.25 49.358h-12.5a2 2 0 0 1-2-2V94.353a2 2 0 0 1 2-2h12.5a2 2 0 0 1 2 2v17.214a2 2 0 0 1-2 2m-10.5-4h8.5V96.353h-8.5Z"/><path fill="#89939e" d="M830.056 96.353h-23.21a2 2 0 0 1-2-2v-9.472c0-4.74 3.858-8.6 8.6-8.6h10.014c4.74 0 8.6 3.86 8.6 8.6v9.472a2 2 0 0 1-2 2m-21.212-4h19.214v-7.472c0-2.536-2.064-4.6-4.6-4.6h-10.014a4.605 4.605 0 0 0-4.6 4.6Zm25.21-38.784a2 2 0 0 1-1.412-.586l-14.144-14.142a2 2 0 0 1 2.83-2.828l14.14 14.14a2 2 0 0 1-1.412 3.416"/><path fill="#89939e" d="M819.918 45.081a2 2 0 0 1-2-2v-5.654a2 2 0 0 1 2-2h5.656a2 2 0 1 1 0 4h-3.656v3.656a2 2 0 0 1-2 2m10.212-9.586a2 2 0 0 1-1.414-.586l-10.07-10.072a2 2 0 0 1 2.828-2.828l10.07 10.07a2 2 0 0 1-1.414 3.416"/><path fill="#89939e" d="M820.058 31.081a2 2 0 0 1-2-2v-5.654a2 2 0 0 1 2-2h5.66a2 2 0 1 1 0 4h-3.66v3.656a2 2 0 0 1-2 2m-65.17 16.828 2.828 2.828-2.828 2.828-2.83-2.828Zm5.656-.004 2.83 2.83-2.83 2.828-2.826-2.828Zm-5.656-5.654 2.828 2.828-2.828 2.828-2.828-2.828Zm5.658 0 2.828 2.828-2.828 2.828-2.828-2.828Zm-6.488-8.686c-3.306 0-6-2.692-6-6s2.692-6 6-6 6 2.692 6 6-2.69 6-6 6m0-8a2.002 2.002 0 0 0 0 4 2.002 2.002 0 0 0 0-4"/></g><path fill="transparent" stroke="transparent" d="M720 0h560v126H720z"/></g></svg>