<svg xmlns="http://www.w3.org/2000/svg" xml:space="preserve" width="2000" height="123" data-id="lg_kCtZrYO3Wx29dIDti7" data-version="1" viewBox="0 0 2000 123"><g data-padding="20"><g transform="translate(10 2.204)scale(.96416)"><rect width="459.491" height="123.871" x="540.057" y="-59.748" fill="none" rx="0" ry="0" transform="matrix(.97 0 0 .97 336.38 60.64)"/><path fill="#fff" d="M881.748 52.141h-19.64V3.731h9.69v40.16h9.95Zm14.14.44q-4.4 0-7.01-1.65-2.62-1.65-3.74-4.76-1.13-3.1-1.13-7.48v-16.58q0-5.75 3.3-8.71t9.08-2.96q11.88 0 11.88 11.67v3q0 5.44-.11 7.31h-14.3v7.98q0 1.1.13 2.16.14 1.06.62 1.74.48.69 1.56.69 1.54 0 1.92-1.33.39-1.34.39-3.48v-3.96h9.79v2.34q0 4.62-1.14 7.74t-3.85 4.7-7.39 1.58m-2.09-30.61v5.56h4.68v-5.56q0-2.23-.55-3.2-.55-.98-1.65-.98-1.19 0-1.83.93-.65.94-.65 3.25m25.55 30.61q-3.43 0-5.24-1.59-1.8-1.6-2.46-4.38-.66-2.77-.66-6.29 0-3.77.74-6.18.75-2.41 2.55-3.95t4.96-2.61l6.11-2.09v-4.24q0-3.32-2.17-3.32-1.98 0-1.98 2.69v2.48h-9.58q-.02-.22-.02-.57v-.78q0-6.16 2.9-8.73 2.9-2.58 9.2-2.58 3.3 0 5.91 1.17 2.62 1.17 4.14 3.46 1.53 2.28 1.53 5.63v31.44h-9.79v-4.89q-.72 2.58-2.37 3.96-1.65 1.37-3.77 1.37m3.88-7.64q1.21 0 1.65-1.02t.44-2.2v-11.5q-2.03.83-3.16 2.08t-1.13 3.67v5.31q0 3.66 2.2 3.66m25.86 7.21h-10.01v-41.26h10.01v4.6q.71-2.39 2.53-3.74 1.81-1.35 4.56-1.35v8.22q-1.21 0-2.88.27-1.68.26-2.95.71-1.26.45-1.26 1Zm19.36-.01h-9.85v-41.26h9.85v5.26q.55-2.37 2.05-4.03 1.5-1.67 4.17-1.67 4.29 0 6.23 2.65 1.94 2.64 1.94 7.23v31.82h-9.71v-30.8q0-1.21-.5-2.24-.49-1.04-1.7-1.04-1.13 0-1.67.79-.53.78-.67 1.95t-.14 2.32Zm28.04-43.79h-9.85V.161h9.85Zm0 43.79h-9.85v-41.26h9.85Zm13.74 0h-9.85v-41.26h9.85v5.26q.55-2.37 2.05-4.03 1.5-1.67 4.17-1.67 4.29 0 6.23 2.65 1.94 2.64 1.94 7.23v31.82h-9.71v-30.8q0-1.21-.5-2.24-.49-1.04-1.7-1.04-1.13 0-1.67.79-.53.78-.67 1.95t-.14 2.32Zm29.35 7.15q-2.86 0-4.91-.28-2.05-.29-3.67-1.04-1.62-.74-3.25-2.09l3.33-5.69q3.6 2.15 7.21 2.15 2.36 0 3.52-1.52 1.15-1.51 1.15-3.93v-4.04q-1.18 4.23-6.3 4.23-2.94 0-4.75-1.4-1.82-1.4-2.64-3.8-.83-2.39-.83-5.33v-14.83q0-3.33.72-5.87.71-2.54 2.5-3.98 1.79-1.43 5-1.43 2.73 0 4.25 1.38 1.53 1.38 2.05 3.71v-4.65h10.04v35.38q0 7.01-3.23 10.02t-10.19 3.01m1.07-19.63q2.31 0 2.31-4.19v-14.02q0-1.13-.64-2.31-.65-1.19-1.78-1.19-1.43 0-1.79 1.06-.35 1.06-.35 2.44v14.02q0 1.49.37 2.84t1.88 1.35m-168.74 69.14h-9.8v-48.41h14.86q3.71 0 5.61 1.69t2.54 4.73q.65 3.04.65 7.14 0 3.96-1 6.32-1.01 2.37-3.79 3.28 2.29.46 3.21 2.26.92 1.81.92 4.67v18.32h-9.55v-18.96q0-2.11-.86-2.62-.87-.51-2.79-.51Zm.05-39.45v8.97h2.34q2.01 0 2.01-4.37 0-2.84-.44-3.72t-1.65-.88Zm28.4 39.89q-4.4 0-7.02-1.66-2.61-1.65-3.74-4.75-1.12-3.11-1.12-7.48v-16.59q0-5.75 3.3-8.71 3.3-2.95 9.07-2.95 11.88 0 11.88 11.66v3q0 5.44-.11 7.31h-14.3v7.98q0 1.1.14 2.16t.62 1.75q.48.68 1.55.68 1.54 0 1.93-1.33.38-1.33.38-3.48v-3.96h9.79v2.34q0 4.62-1.14 7.74t-3.85 4.7q-2.71 1.59-7.38 1.59m-2.09-30.62v5.56h4.67v-5.56q0-2.23-.55-3.2-.55-.98-1.65-.98-1.18 0-1.83.94-.64.93-.64 3.24m29.34 30.62q-12.22 0-12.22-12.38v-3.28h9.9v4.85q0 1.4.55 2.2.56.79 1.77.79 2.14 0 2.14-3.21 0-2.7-1.13-4.03-1.12-1.34-2.75-2.58l-5.25-4.04q-2.48-1.92-3.77-4.07t-1.29-5.97q0-3.55 1.69-5.86t4.48-3.44q2.79-1.12 6.04-1.12 11.99 0 11.99 11.96v.77h-10.17v-1.57q0-1.23-.43-2.39-.43-1.15-1.66-1.15-2.1 0-2.1 2.2 0 2.22 1.77 3.49l6.1 4.46q2.86 2.06 4.8 4.89t1.94 7.54q0 5.83-3.31 8.88-3.32 3.06-9.09 3.06m27.43 0q-12.32 0-12.32-12.79v-16.56q0-5.83 3.27-9.31t9.05-3.48q5.8 0 9.07 3.48 3.28 3.48 3.28 9.31v16.56q0 12.79-12.35 12.79m0-7.6q1.24 0 1.77-.89.54-.89.54-2.27v-20.16q0-3.6-2.31-3.6t-2.31 3.6v20.16q0 1.38.53 2.27.54.89 1.78.89m23.92 7.6q-3.3 0-5.05-1.38t-2.38-3.84-.63-5.76v-30.72h9.9v29.57q0 2.47.39 3.45.38.97 1.81.97 1.54 0 1.94-1.37.4-1.38.4-3.55v-29.07h9.82v41.26h-9.85v-4.41q-.93 2.37-2.24 3.61t-4.11 1.24m30.18-.44h-10.01v-41.26h10.01v4.59q.72-2.39 2.53-3.74 1.82-1.35 4.57-1.35v8.23q-1.21 0-2.89.26t-2.94.71q-1.27.46-1.27 1.01Zm21.91.44q-6.93 0-9.83-3.55t-2.9-10.43v-12.71q0-5.17 1.1-8.6 1.1-3.44 3.85-5.15 2.75-1.7 7.65-1.7 3.41 0 6.12 1.21 2.7 1.21 4.27 3.55 1.57 2.33 1.57 5.72v6.3h-10.04v-5.78q0-1.43-.41-2.41-.41-.97-1.79-.97-2.42 0-2.42 3.43v20q0 1.27.55 2.32.55 1.06 1.82 1.06 1.29 0 1.8-1.03t.51-2.4v-6.94h9.98v7.21q0 3.41-1.53 5.85-1.52 2.43-4.19 3.72-2.67 1.3-6.11 1.3m26.82 0q-4.4 0-7.01-1.66-2.62-1.65-3.74-4.75-1.13-3.11-1.13-7.48v-16.59q0-5.75 3.3-8.71 3.3-2.95 9.08-2.95 11.88 0 11.88 11.66v3q0 5.44-.11 7.31h-14.3v7.98q0 1.1.13 2.16.14 1.06.62 1.75.48.68 1.56.68 1.54 0 1.92-1.33.39-1.33.39-3.48v-3.96h9.79v2.34q0 4.62-1.14 7.74t-3.85 4.7q-2.71 1.59-7.39 1.59m-2.09-30.62v5.56h4.68v-5.56q0-2.23-.55-3.2-.55-.98-1.65-.98-1.19 0-1.83.94-.65.93-.65 3.24m40.16 30.18h-8.75v-48.41h14.74l4.08 29.51 4.04-29.51h14.88v48.41h-8.86v-34.88l-5.55 34.88h-8.7l-5.88-34.88Zm40.63.44q-3.43 0-5.24-1.6-1.8-1.6-2.46-4.37-.66-2.78-.66-6.3 0-3.77.75-6.18.74-2.4 2.54-3.94t4.96-2.62l6.11-2.09v-4.23q0-3.33-2.17-3.33-1.98 0-1.98 2.69v2.48h-9.57q-.03-.22-.03-.56v-.79q0-6.16 2.9-8.73t9.2-2.57q3.3 0 5.91 1.17 2.62 1.16 4.14 3.45 1.53 2.28 1.53 5.64v31.44h-9.79v-4.9q-.72 2.58-2.37 3.96t-3.77 1.38m3.88-7.65q1.21 0 1.65-1.02t.44-2.2v-11.5q-2.03.83-3.16 2.08t-1.13 3.67v5.31q0 3.66 2.2 3.66m25.69 7.21h-9.84v-41.26h9.84v5.25q.55-2.36 2.05-4.03 1.5-1.66 4.17-1.66 4.29 0 6.23 2.64t1.94 7.23v31.83h-9.71v-30.81q0-1.21-.5-2.24-.49-1.03-1.7-1.03-1.13 0-1.67.78-.53.78-.67 1.95t-.14 2.33Zm25.74.44q-3.44 0-5.24-1.6t-2.46-4.37q-.66-2.78-.66-6.3 0-3.77.74-6.18.74-2.4 2.54-3.94t4.97-2.62l6.1-2.09v-4.23q0-3.33-2.17-3.33-1.98 0-1.98 2.69v2.48h-9.57q-.03-.22-.03-.56v-.79q0-6.16 2.9-8.73t9.2-2.57q3.3 0 5.92 1.17 2.61 1.16 4.14 3.45 1.52 2.28 1.52 5.64v31.44h-9.79v-4.9q-.71 2.58-2.36 3.96t-3.77 1.38m3.88-7.65q1.21 0 1.65-1.02t.44-2.2v-11.5q-2.04.83-3.17 2.08-1.12 1.25-1.12 3.67v5.31q0 3.66 2.2 3.66m26.95 14.36q-2.86 0-4.91-.29t-3.67-1.03q-1.62-.75-3.25-2.09l3.33-5.7q3.61 2.15 7.21 2.15 2.36 0 3.52-1.52 1.15-1.51 1.15-3.93v-4.04q-1.18 4.23-6.29 4.23-2.95 0-4.76-1.4-1.82-1.4-2.64-3.79-.83-2.4-.83-5.34v-14.83q0-3.32.72-5.87.71-2.54 2.5-3.97t5.01-1.43q2.72 0 4.25 1.37 1.52 1.38 2.04 3.72v-4.65h10.04v35.37q0 7.01-3.23 10.02-3.23 3.02-10.19 3.02m1.07-19.64q2.31 0 2.31-4.18v-14.03q0-1.13-.64-2.31-.65-1.18-1.78-1.18-1.43 0-1.78 1.05-.36 1.06-.36 2.44v14.03q0 1.48.37 2.83t1.88 1.35m27.76 12.93q-4.4 0-7.02-1.66-2.61-1.65-3.74-4.75-1.13-3.11-1.13-7.48v-16.59q0-5.75 3.31-8.71 3.3-2.95 9.07-2.95 11.88 0 11.88 11.66v3q0 5.44-.11 7.31h-14.3v7.98q0 1.1.14 2.16t.62 1.75q.48.68 1.55.68 1.54 0 1.93-1.33.38-1.33.38-3.48v-3.96h9.79v2.34q0 4.62-1.14 7.74t-3.85 4.7q-2.71 1.59-7.38 1.59m-2.09-30.62v5.56h4.67v-5.56q0-2.23-.55-3.2-.55-.98-1.65-.98-1.18 0-1.83.94-.64.93-.64 3.24m28.05 30.18h-10.01v-41.26h10.01v4.59q.72-2.39 2.53-3.74 1.82-1.35 4.57-1.35v8.23q-1.21 0-2.89.26t-2.94.71q-1.27.46-1.27 1.01Z"/><path fill="#08c076" d="M792.108 56.546a18.94 18.94 0 0 1-13.476-5.582 18.93 18.93 0 0 1-5.582-13.48 18.93 18.93 0 0 1 5.582-13.476 18.93 18.93 0 0 1 13.477-5.582c5.092 0 9.876 1.984 13.477 5.582 7.43 7.431 7.43 19.523 0 26.956a18.94 18.94 0 0 1-13.478 5.582m0-34.32a15.16 15.16 0 0 0-10.792 4.469 15.17 15.17 0 0 0-4.467 10.792c0 4.077 1.586 7.908 4.47 10.788a15.16 15.16 0 0 0 10.79 4.47 15.16 15.16 0 0 0 10.79-4.47c5.948-5.949 5.948-15.63 0-21.58a15.16 15.16 0 0 0-10.795-4.469"/><path fill="#08c076" d="M792.108 47.766a10.22 10.22 0 0 1-7.269-3.01 10.22 10.22 0 0 1-3.01-7.271c0-2.748 1.07-5.328 3.01-7.27a10.2 10.2 0 0 1 7.27-3.01 10.2 10.2 0 0 1 7.27 3.01c4.01 4.018 4.01 10.523 0 14.541a10.22 10.22 0 0 1-7.27 3.01m0-16.76a6.46 6.46 0 0 0-4.583 1.898c-1.224 1.224-1.9 2.85-1.9 4.58s.676 3.36 1.9 4.584a6.44 6.44 0 0 0 4.583 1.9 6.46 6.46 0 0 0 4.583-1.9 6.49 6.49 0 0 0 0-9.164 6.46 6.46 0 0 0-4.583-1.9m-31.52 41.912a7 7 0 0 1-6.99-6.99c0-3.853 3.134-6.99 6.99-6.99s6.987 3.135 6.987 6.99a7 7 0 0 1-6.988 6.99m0-10.18c-1.76 0-3.19 1.43-3.19 3.19s1.43 3.19 3.19 3.19a3.192 3.192 0 0 0 0-6.38m5.94 46.89h-11.877a1.9 1.9 0 0 1-1.9-1.9V91.373c0-1.05.85-1.9 1.9-1.9h11.877c1.05 0 1.9.85 1.9 1.9v16.353a1.9 1.9 0 0 1-1.9 1.9m-9.975-3.8h8.075V93.273h-8.076Z"/><path fill="#08c076" d="M771.615 93.273h-22.05a1.9 1.9 0 0 1-1.9-1.9v-8.999c0-4.503 3.666-8.17 8.17-8.17h9.512c4.505 0 8.17 3.667 8.17 8.17v8.999a1.9 1.9 0 0 1-1.9 1.9m-20.153-3.8h18.253v-7.099a4.374 4.374 0 0 0-4.37-4.37h-9.513a4.375 4.375 0 0 0-4.37 4.37Zm18.626 20.153h-19a1.9 1.9 0 1 1 0-3.8h19a1.9 1.9 0 1 1 0 3.8m18.253-36.71a7 7 0 0 1-6.99-6.99 7 7 0 0 1 6.99-6.99 7 7 0 0 1 6.99 6.99 7 7 0 0 1-6.99 6.99m0-10.18c-1.76 0-3.19 1.43-3.19 3.19s1.43 3.19 3.19 3.19 3.19-1.43 3.19-3.19-1.43-3.19-3.19-3.19m5.938 46.89h-11.875a1.9 1.9 0 0 1-1.9-1.9V91.373c0-1.05.85-1.9 1.9-1.9h11.875a1.9 1.9 0 0 1 1.9 1.9v16.353a1.9 1.9 0 0 1-1.9 1.9m-9.976-3.8h8.075V93.273h-8.074Z"/><path fill="#08c076" d="M799.371 93.273h-22.056a1.9 1.9 0 0 1-1.9-1.9v-8.999c0-4.503 3.667-8.17 8.17-8.17h9.516c4.503 0 8.17 3.667 8.17 8.17v8.999a1.9 1.9 0 0 1-1.9 1.9m-20.156-3.8h18.256v-7.099a4.376 4.376 0 0 0-4.37-4.37h-9.516a4.376 4.376 0 0 0-4.37 4.37Zm18.628 20.153h-19a1.9 1.9 0 1 1 0-3.8h19a1.9 1.9 0 1 1 0 3.8m13.52-43.67a1.9 1.9 0 0 1-1.343-.556l-11.347-11.347a1.9 1.9 0 0 1 .468-3.029l.117-.06.15-.076a15.3 15.3 0 0 0 6.244-6.365 1.9 1.9 0 0 1 3.03-.468l12.57 12.57a7.03 7.03 0 0 1 1.253 8.307 1.9 1.9 0 0 1-3.445-.184 3.17 3.17 0 0 0-2.964-2.01 3.17 3.17 0 0 0-2.966 2.018 1.9 1.9 0 0 1-1.767 1.2m-8.29-12.88 7.99 7.994a6.95 6.95 0 0 1 5.035-2.132c.9 0 1.767.169 2.57.482l-.104-.106-10.862-10.864a19.2 19.2 0 0 1-4.63 4.626m22.524 56.55h-19a1.9 1.9 0 1 1 0-3.8h19a1.9 1.9 0 1 1 0 3.8"/><path fill="#08c076" d="M816.096 72.916a7 7 0 0 1-6.986-6.99 7 7 0 0 1 6.988-6.99 7 7 0 0 1 6.988 6.99 7 7 0 0 1-6.99 6.99m0-10.18a3.193 3.193 0 0 0-3.188 3.19c0 1.76 1.43 3.19 3.188 3.19s3.19-1.43 3.19-3.19-1.43-3.19-3.19-3.19m5.938 46.89h-11.876a1.9 1.9 0 0 1-1.9-1.9V91.373c0-1.05.85-1.9 1.9-1.9h11.875c1.05 0 1.9.85 1.9 1.9v16.353a1.9 1.9 0 0 1-1.9 1.9m-9.975-3.8h8.075V93.273h-8.075Z"/><path fill="#08c076" d="M827.12 93.273h-22.05a1.9 1.9 0 0 1-1.9-1.9v-8.999c0-4.503 3.666-8.17 8.17-8.17h9.514c4.503 0 8.17 3.667 8.17 8.17v8.999a1.9 1.9 0 0 1-1.9 1.9m-20.152-3.8h18.254v-7.099a4.376 4.376 0 0 0-4.37-4.37h-9.514a4.374 4.374 0 0 0-4.37 4.37Zm23.95-36.845a1.9 1.9 0 0 1-1.34-.557l-13.438-13.435a1.9 1.9 0 0 1 2.688-2.686l13.433 13.433a1.9 1.9 0 0 1-1.34 3.245"/><path fill="#08c076" d="M817.49 44.564a1.9 1.9 0 0 1-1.9-1.9v-5.371c0-1.05.85-1.9 1.9-1.9h5.372a1.9 1.9 0 1 1 0 3.8h-3.473v3.473a1.9 1.9 0 0 1-1.9 1.9m9.701-9.106a1.9 1.9 0 0 1-1.343-.557l-9.566-9.569a1.9 1.9 0 0 1 2.686-2.686l9.567 9.566a1.9 1.9 0 0 1-1.344 3.245"/><path fill="#08c076" d="M817.622 31.264a1.9 1.9 0 0 1-1.9-1.9v-5.371c0-1.05.85-1.9 1.9-1.9H823a1.9 1.9 0 1 1 0 3.8h-3.477v3.473a1.9 1.9 0 0 1-1.9 1.9M755.71 47.253l2.687 2.686-2.687 2.687-2.688-2.687Zm5.374-.004 2.688 2.688-2.688 2.687-2.685-2.687Zm-5.373-5.371 2.686 2.686-2.687 2.687-2.686-2.687Zm5.375 0 2.686 2.686-2.686 2.687-2.687-2.687Zm-6.164-8.252c-3.14 0-5.7-2.557-5.7-5.7s2.557-5.7 5.7-5.7 5.7 2.557 5.7 5.7-2.556 5.7-5.7 5.7m0-7.6a1.902 1.902 0 0 0 0 3.8 1.902 1.902 0 0 0 0-3.8"/></g><path fill="transparent" stroke="transparent" d="M721 0h558v123H721z"/></g></svg>